<svg xmlns="http://www.w3.org/2000/svg" width="1200" height="628" viewBox="0 0 1200 628"><defs><linearGradient id="bg" x1="0%" x2="100%" y1="0%" y2="100%"><stop offset="0%" style="stop-color:#0f172a"/><stop offset="50%" style="stop-color:#1e293b"/><stop offset="100%" style="stop-color:#0f172a"/></linearGradient><linearGradient id="accent" x1="0%" x2="100%" y1="0%" y2="0%"><stop offset="0%" style="stop-color:#06b6d4"/><stop offset="100%" style="stop-color:#22d3ee"/></linearGradient><linearGradient id="warmAccent" x1="0%" x2="100%" y1="0%" y2="0%"><stop offset="0%" style="stop-color:#a78bfa"/><stop offset="100%" style="stop-color:#c4b5fd"/></linearGradient><linearGradient id="greenAccent" x1="0%" x2="100%" y1="0%" y2="0%"><stop offset="0%" style="stop-color:#10b981"/><stop offset="100%" style="stop-color:#34d399"/></linearGradient><linearGradient id="triBar" x1="0%" x2="100%" y1="0%" y2="0%"><stop offset="0%" style="stop-color:#f97316"/><stop offset="33%" style="stop-color:#f97316"/><stop offset="33%" style="stop-color:#e2e8f0"/><stop offset="66%" style="stop-color:#e2e8f0"/><stop offset="66%" style="stop-color:#10b981"/><stop offset="100%" style="stop-color:#10b981"/></linearGradient><filter id="glow"><feGaussianBlur result="coloredBlur" stdDeviation="3"/><feMerge><feMergeNode in="coloredBlur"/><feMergeNode in="SourceGraphic"/></feMerge></filter><filter id="softGlow"><feGaussianBlur result="coloredBlur" stdDeviation="20"/><feMerge><feMergeNode in="coloredBlur"/><feMergeNode in="SourceGraphic"/></feMerge></filter></defs><rect width="1200" height="628" fill="url(#bg)"/><g stroke="#94a3b8" stroke-width=".5" opacity=".04"><line x1="0" x2="0" y1="0" y2="628"/><line x1="60" x2="60" y1="0" y2="628"/><line x1="120" x2="120" y1="0" y2="628"/><line x1="180" x2="180" y1="0" y2="628"/><line x1="240" x2="240" y1="0" y2="628"/><line x1="300" x2="300" y1="0" y2="628"/><line x1="360" x2="360" y1="0" y2="628"/><line x1="420" x2="420" y1="0" y2="628"/><line x1="480" x2="480" y1="0" y2="628"/><line x1="540" x2="540" y1="0" y2="628"/><line x1="600" x2="600" y1="0" y2="628"/><line x1="660" x2="660" y1="0" y2="628"/><line x1="720" x2="720" y1="0" y2="628"/><line x1="780" x2="780" y1="0" y2="628"/><line x1="840" x2="840" y1="0" y2="628"/><line x1="900" x2="900" y1="0" y2="628"/><line x1="960" x2="960" y1="0" y2="628"/><line x1="1020" x2="1020" y1="0" y2="628"/><line x1="1080" x2="1080" y1="0" y2="628"/><line x1="1140" x2="1140" y1="0" y2="628"/><line x1="0" x2="1200" y1="60" y2="60"/><line x1="0" x2="1200" y1="120" y2="120"/><line x1="0" x2="1200" y1="180" y2="180"/><line x1="0" x2="1200" y1="240" y2="240"/><line x1="0" x2="1200" y1="300" y2="300"/><line x1="0" x2="1200" y1="360" y2="360"/><line x1="0" x2="1200" y1="420" y2="420"/><line x1="0" x2="1200" y1="480" y2="480"/><line x1="0" x2="1200" y1="540" y2="540"/></g><g fill="none" stroke-width="1.5" opacity=".1"><path stroke="#06b6d4" d="M-50 350 Q150 280 350 320 Q550 360 750 300 Q950 240 1250 280"/><path stroke="#a78bfa" d="M-50 380 Q150 310 350 350 Q550 390 750 330 Q950 270 1250 310"/><path stroke="#10b981" d="M-50 410 Q150 340 350 380 Q550 420 750 360 Q950 300 1250 340"/><path stroke="#06b6d4" d="M-50 440 Q150 370 350 410 Q550 450 750 390 Q950 330 1250 370" opacity=".6"/><path stroke="#a78bfa" d="M-50 470 Q150 400 350 440 Q550 480 750 420 Q950 360 1250 400" opacity=".6"/></g><circle cx="900" cy="200" r="120" fill="#06b6d4" filter="url(#softGlow)" opacity=".03"/><circle cx="300" cy="400" r="100" fill="#a78bfa" filter="url(#softGlow)" opacity=".03"/><g fill="#f8fafc" stroke="#94a3b8" stroke-width="1" opacity=".06"><path d="M200 20 L220 10 L250 15 L280 5 L310 20 L330 15 L350 30 L340 50 L360 70 L350 90 L370 110 L360 130 L380 150 L370 180 L350 200 L360 230 L340 260 L350 290 L330 320 L310 350 L280 370 L260 400 L240 420 L250 440 L230 460 L210 440 L200 460 L180 440 L170 420 L150 430 L140 410 L120 400 L130 380 L110 360 L120 340 L100 320 L110 290 L90 270 L100 250 L80 230 L100 210 L90 190 L110 170 L100 150 L120 130 L110 110 L130 90 L140 70 L160 50 L170 30 Z" transform="translate(830, 100) scale(0.65)"/></g><rect width="80" height="4" x="80" y="0" fill="#f97316" rx="2"/><rect width="80" height="4" x="165" y="0" fill="#e2e8f0" rx="2"/><rect width="80" height="4" x="250" y="0" fill="#10b981" rx="2"/><text x="110" y="150" fill="#f8fafc" font-family="'Georgia', 'Times New Roman', serif" font-size="72" font-weight="bold" letter-spacing="-1">Policy<tspan fill="url(#accent)">Dhara</tspan></text><text x="115" y="195" fill="#94a3b8" font-family="'Segoe UI', 'Helvetica Neue', Arial, sans-serif" font-size="22" letter-spacing="3">INDIA&apos;S OPEN-SOURCE POLICY INTELLIGENCE ENGINE</text><rect width="400" height="1.5" x="115" y="215" fill="url(#accent)" opacity=".4" rx="1"/><text x="115" y="255" fill="#cbd5e1" font-family="'Segoe UI', 'Helvetica Neue', Arial, sans-serif" font-size="20">Tracking 2,000+ development policies across</text><text x="115" y="283" fill="#cbd5e1" font-family="'Segoe UI', 'Helvetica Neue', Arial, sans-serif" font-size="20">23 sectors from 310 sources — updated every 6 hours</text><g transform="translate(115, 320)"><rect width="170" height="85" fill="#1e293b" stroke="#334155" stroke-width="1" opacity=".9" rx="10"/><text x="20" y="35" fill="#22d3ee" filter="url(#glow)" font-family="'Segoe UI', Arial, sans-serif" font-size="32" font-weight="bold">2,000+</text><text x="20" y="60" fill="#94a3b8" font-family="'Segoe UI', Arial, sans-serif" font-size="14" letter-spacing="1">POLICIES</text></g><g transform="translate(305, 320)"><rect width="140" height="85" fill="#1e293b" stroke="#334155" stroke-width="1" opacity=".9" rx="10"/><text x="20" y="35" fill="#a78bfa" filter="url(#glow)" font-family="'Segoe UI', Arial, sans-serif" font-size="32" font-weight="bold">23</text><text x="20" y="60" fill="#94a3b8" font-family="'Segoe UI', Arial, sans-serif" font-size="14" letter-spacing="1">SECTORS</text></g><g transform="translate(465, 320)"><rect width="140" height="85" fill="#1e293b" stroke="#334155" stroke-width="1" opacity=".9" rx="10"/><text x="20" y="35" fill="#10b981" filter="url(#glow)" font-family="'Segoe UI', Arial, sans-serif" font-size="32" font-weight="bold">310</text><text x="20" y="60" fill="#94a3b8" font-family="'Segoe UI', Arial, sans-serif" font-size="14" letter-spacing="1">SOURCES</text></g><g transform="translate(115, 435)"><rect width="95" height="30" fill="none" stroke="#22d3ee" stroke-width="1" opacity=".6" rx="15"/><text x="14" y="20" fill="#22d3ee" font-family="'Segoe UI', Arial, sans-serif" font-size="12">Search</text><text x="55" y="20" fill="#475569" font-family="'Segoe UI', Arial, sans-serif" font-size="12">|</text><text x="65" y="20" fill="#22d3ee" font-family="'Segoe UI', Arial, sans-serif" font-size="12">API</text></g><g transform="translate(225, 435)"><rect width="140" height="30" fill="none" stroke="#a78bfa" stroke-width="1" opacity=".6" rx="15"/><text x="14" y="20" fill="#a78bfa" font-family="'Segoe UI', Arial, sans-serif" font-size="12">Parliament Tracker</text></g><g transform="translate(380, 435)"><rect width="130" height="30" fill="none" stroke="#10b981" stroke-width="1" opacity=".6" rx="15"/><text x="14" y="20" fill="#10b981" font-family="'Segoe UI', Arial, sans-serif" font-size="12">Budget Tracker</text></g><g transform="translate(525, 435)"><rect width="80" height="30" fill="none" stroke="#fbbf24" stroke-width="1" opacity=".6" rx="15"/><text x="14" y="20" fill="#fbbf24" font-family="'Segoe UI', Arial, sans-serif" font-size="12">Alerts</text></g><text x="115" y="505" fill="#475569" font-family="'Courier New', monospace" font-size="13" letter-spacing="1">ASTRO / PYTHON / GITHUB ACTIONS / ZERO SERVERS</text><text x="115" y="570" fill="#64748b" font-family="'Segoe UI', Arial, sans-serif" font-size="16">An</text><text x="140" y="570" fill="#f8fafc" font-family="'Segoe UI', Arial, sans-serif" font-size="16" font-weight="bold">ImpactMojo</text><text x="250" y="570" fill="#64748b" font-family="'Segoe UI', Arial, sans-serif" font-size="16">Initiative</text><g transform="translate(350, 550)"><rect width="120" height="28" fill="#10b981" opacity=".15" rx="14"/><text x="15" y="19" fill="#10b981" font-family="'Segoe UI', Arial, sans-serif" font-size="12" font-weight="bold" letter-spacing=".5">OPEN SOURCE</text></g><rect width="400" height="4" x="0" y="624" fill="#f97316"/><rect width="400" height="4" x="400" y="624" fill="#e2e8f0"/><rect width="400" height="4" x="800" y="624" fill="#10b981"/></svg>